# xmcd
#
# Track frame offsets: 
#        150
#        23465
#        43575
#        64982
#        88617
#        107982
#        125865
#        146172
#        171562
#        192495
#        211867
#
# Disc length: 3078 seconds
#
# Revision: 0
# Processed by: cddbd v1.5.2PL0 Copyright (c) Steve Scherf et al.
# Submitted via: ExactAudioCopy v1.0b4
#
DISCID=a80c040b
DTITLE=Ella May Saison - So In Love
DYEAR=1997
DGENRE=Soul
TTITLE0=Never had a chance
TTITLE1=I have a heart
TTITLE2=Got lovin' for you
TTITLE3=I believe
TTITLE4=So in love
TTITLE5=Poetry man
TTITLE6=Special
TTITLE7=Waiting here for you
TTITLE8=You won't get to hold me
TTITLE9=Still apart
TTITLE10=Read my mind
EXTD=
EXTT0=
EXTT1=
EXTT2=
EXTT3=
EXTT4=
EXTT5=
EXTT6=
EXTT7=
EXTT8=
EXTT9=
EXTT10=
PLAYORDER=
